PathFileType	4	(X/Y/Z)	pose2sim_0-675.trc
DataRate	CameraRate	NumFrames	NumMarkers	Units	OrigDataRate	OrigDataStartFrame	OrigNumFrames
50	50	6	22	m	50	338	676
Frame#	Time	Hip			RHip			RKnee			RAnkle			RBigToe			RSmallToe			RHeel			LHip			LKnee			LAnkle			LBigToe			LSmallToe			LHeel			Neck			Head			Nose			RShoulder			RElbow			RWrist			LShoulder			LElbow			LWrist			
		X1	Y1	Z1	X2	Y2	Z2	X3	Y3	Z3	X4	Y4	Z4	X5	Y5	Z5	X6	Y6	Z6	X7	Y7	Z7	X8	Y8	Z8	X9	Y9	Z9	X10	Y10	Z10	X11	Y11	Z11	X12	Y12	Z12	X13	Y13	Z13	X14	Y14	Z14	X15	Y15	Z15	X16	Y16	Z16	X17	Y17	Z17	X18	Y18	Z18	X19	Y19	Z19	X20	Y20	Z20	X21	Y21	Z21	X22	Y22	Z22	
338	6.76	0.11480455503524124	0.7897928971984542	-0.011289801046667677	0.027048032167188905	0.7800942396603353	-0.010334915451114859	-0.01854353212493315	0.4179850419451674	-0.03893992490745335	-0.07019199854767696	0.07659480369647695	-0.06740410046701178	-0.09073051893990355	0.03652137965514797	0.0716860912757444	-0.12621514630086708	0.03514133635102923	0.026184348170299555	-0.06710516440384919	0.03933271328744508	-0.10391629016579293	0.20960297107065795	0.7759989077223814	-0.017783528438728335	0.25776620185357774	0.4159526616002527	-0.06933465963169165	0.27747778754758096	0.07796352432564481	-0.0905370971240818	0.320846000384593	0.038014283383932555	0.04289482177470951	0.34977327510387923	0.03819246350406094	-0.0015970161904524157	0.26621324002662905	0.03901491748116569	-0.11595468219141886	0.13021217547775035	1.2822455050628523	-0.0217493574303789	0.13796057173792853	1.494069243933265	0.01865807672052573	0.13420617468636944	1.3772487671470923	0.09258462099776754	-0.020538544583187063	1.2097318684281426	-0.01767545187055645	-0.08351372791497277	0.9921802844493203	0.03824511896125608	-0.08656130992668291	1.146244609607044	0.15752676034407007	0.2773439944364385	1.2037762806318546	-0.04308494987281405	0.33580240338934664	0.986226834626029	0.013789097057304397	0.3424373816221109	1.1348920097253639	0.14603588106345636
339	6.78	0.11642128810685691	0.7891016622625343	-0.013057146034051767	0.026821769950612293	0.7770320136774557	-0.005024868029973831	-0.02009986945440698	0.41952597370522193	-0.036600332086302347	-0.06938050281676103	0.07671194140316613	-0.06753522208832519	-0.09306004548794802	0.03642466494629393	0.06951561834064733	-0.12756273827182135	0.0340514444328963	0.023645545794776818	-0.06468632526239058	0.03955321201393118	-0.10343708229794538	0.2097919021231884	0.7764104906762829	-0.01582922661672529	0.2541334764637815	0.4140583907585543	-0.0676274978790881	0.27915145900346877	0.0780563472618436	-0.08943312615655971	0.3218189568786436	0.038518991987765504	0.0436146531116245	0.3491386666183644	0.03874869080682585	-0.0020249563293269187	0.2650324126831115	0.04033050393634554	-0.11666000325440484	0.12967135163684668	1.2857340307393839	-0.023008471812848038	0.13822819419958973	1.4958737967803768	0.01468622713969695	0.13296459656577533	1.378394799547957	0.08825796719375005	-0.018846494627542062	1.2092549588068964	-0.0244859101167262	-0.0818601265358953	0.9915376070403094	0.03497191255280659	-0.09295350535553377	1.1464158334245134	0.1501294345576087	0.27751840719729715	1.2052936669337229	-0.04083946981381345	0.33629401503863715	0.986011266803013	0.023564674202271523	0.3429474664697812	1.1290959458005903	0.14620436879957532
340	6.8	0.11622928530896985	0.7970157471026587	-0.015165185658627157	0.029464045861556806	0.7850173423005342	-0.002906608513527371	-0.02170324472076066	0.41777559776827244	-0.043072835401536155	-0.07170484637532237	0.07026462012743538	-0.06666504691056781	-0.08518562181305256	0.030982129368727896	0.09965682121013265	-0.126545405273879	0.031027803077072633	0.046875996862379934	-0.0698592441923698	0.02341771427912343	-0.09874394638662197	0.20570652968132747	0.787671726167951	-0.021216893636971965	0.2540094218690146	0.41848987191793924	-0.06144850728565368	0.2803389310698833	0.0695495179823916	-0.08401167164402537	0.3174440579986297	0.03166197497418758	0.07173233454846996	0.34677072428855205	0.029686409594411056	0.016983234318061112	0.26888418928693947	0.02877656057032791	-0.10858621425376118	0.130248545202729	1.2867309717461395	-0.02622327917491409	0.13860636019616304	1.4948132553323084	0.002729418412842101	0.14454689428212814	1.3779673367675784	0.07839750292752949	-0.024518171108561415	1.2122334656234557	-0.018058601609561842	-0.08208844898259827	0.9909743043949722	0.04239383594686799	-0.08632131180447573	1.1398027496461829	0.1750884865001585	0.2770946772194347	1.201207405268691	-0.04615178206753557	0.3375246645581808	0.9768614608396192	0.011602912493482722	0.3555025750532031	1.115908687371485	0.13685741932687048
341	6.82	0.11616384254086137	0.7889360187664736	-0.011389471976239657	0.0267335591610552	0.7769373597241047	-0.010036112825264775	-0.021183485873433352	0.41668338916455805	-0.03986659459154872	-0.07055969909917094	0.07670511947707397	-0.06996192818771595	-0.09089438344599521	0.03538480975085716	0.07407960665776439	-0.1257488438424311	0.03533172403624887	0.029352649261733244	-0.06830070419161248	0.03814668970620945	-0.10347756808832204	0.20956859956672585	0.7742696775784557	-0.020002528619889538	0.2560945885531406	0.41489222302144124	-0.0655318017492328	0.2792618036282885	0.07433654913098044	-0.08918745518256042	0.3200983725229941	0.036333662469670416	0.04791715759243051	0.34799441655142493	0.03617992276748589	0.0016590241304697158	0.26494195345373023	0.03550403993837553	-0.1184694164822506	0.13220675197981335	1.2832021222583938	-0.028822701320015142	0.13864845370339454	1.4967442128893045	0.009362451561337649	0.13858668610221003	1.3776929468853658	0.08886863046202773	-0.02022311841423795	1.2089157358960954	-0.02611089813123882	-0.08407261104690436	0.9921033542162966	0.037129434175232644	-0.08976247003355754	1.1328548551788105	0.18367929271980996	0.2800124976960977	1.1985670765021166	-0.059783784815268824	0.33428221578671224	0.9821472716493064	0.021640209667693616	0.3477059060093337	1.119159555108938	0.1701582877339055
342	6.84	0.11579948880411006	0.7878892766477752	-0.01610791681311821	0.02715628100031986	0.7757810402210705	-0.011247232322600225	-0.020698183894749766	0.4184564718726147	-0.03986687081840501	-0.07126824132548189	0.07588146181466518	-0.07151576906928238	-0.09111345137659375	0.03603668959541763	0.06683822539765556	-0.12589860735655564	0.03806523044597185	0.02493361729356327	-0.0694534831251315	0.040072892665915204	-0.11123086389934135	0.20920253271877995	0.7742515885431493	-0.025436118096740283	0.25327876968486274	0.41559952970527836	-0.06893025828678019	0.28044671087250556	0.07718995269427881	-0.0898628333818622	0.32284892249015257	0.04039567751156893	0.04747484292954285	0.35226097528449957	0.03884832501410197	-0.0011539568919355244	0.26623277115495325	0.039319753232139806	-0.11691166706813311	0.1324131553183699	1.2836362228109097	-0.026155674984492523	0.13726737444745762	1.4962548072215291	0.00342698540596523	0.13588669289891922	1.3765536857305982	0.07945802262631288	-0.021003181774657837	1.2116119161297247	-0.0291333829625564	-0.08593012680308501	0.9965966715188155	0.03178605604402261	-0.0862273084977543	1.1262699441084363	0.1932057037434893	0.28023242549806204	1.1974959854897682	-0.05579527813502546	0.3346755598587594	0.9817292213836578	0.010713374412583122	0.3514969062789248	1.1147541639661662	0.1803903991192119
343	6.86	0.11656018995703495	0.7879829523341553	-0.014309620377818555	0.027267374956627392	0.7781311499252793	-0.006833650173581333	-0.019752925882817542	0.4179980050778539	-0.03859356555430752	-0.07029680930528746	0.07833513653702391	-0.07020276008020977	-0.08832176130837548	0.0377318143973333	0.07518050383943767	-0.12322688203144114	0.03609818013868004	0.03206886135853949	-0.0694841738716933	0.04023463431042419	-0.10550206738689646	0.20886406122236773	0.7753375724110296	-0.020844749494333976	0.254460365562308	0.41424668880900034	-0.06913250452803747	0.27804734165934375	0.07755730434940486	-0.09223355280313612	0.3231134924642851	0.03687694448552732	0.04452259423824399	0.35161824723853624	0.036820187765933994	-8.911255460358286e-05	0.2627161981185774	0.03866889656407076	-0.11920390860492894	0.1332843257082318	1.2860871838741887	-0.027701601119139645	0.13800816099290825	1.4957609204419395	0.0016025187059681553	0.136612655789033	1.3785327510385788	0.08303670870255099	-0.02095557452054654	1.2094943472117987	-0.027010522676864702	-0.08569768407856473	0.9929254726460837	0.03995975537910822	-0.08722317287387062	1.1166480722623624	0.1939315565212248	0.280503360357546	1.196720860299437	-0.05768454103157974	0.33380950267938014	0.9802976897629182	0.012873254400954827	0.35097286621260076	1.1052213979869274	0.1843501202736276
